<svg width="48" height="48" viewBox="0 0 48 48" fill="none" xmlns="http://www.w3.org/2000/svg">
<path d="M36 14V34" stroke="white" stroke-width="1.5" stroke-linecap="round" stroke-linejoin="round"/>
<path d="M13.944 10.5339C13.7671 10.3941 13.5544 10.307 13.3303 10.2825C13.1061 10.258 12.8796 10.2972 12.6767 10.3955C12.4738 10.4938 12.3027 10.6473 12.183 10.8384C12.0633 11.0295 11.9999 11.2504 12 11.4759V36.5239C12.0003 36.7492 12.064 36.9698 12.1838 37.1606C12.3037 37.3514 12.4748 37.5046 12.6776 37.6027C12.8804 37.7008 13.1068 37.7398 13.3307 37.7152C13.5547 37.6907 13.7672 37.6036 13.944 37.4639L29.806 24.9419C29.9483 24.8295 30.0634 24.6864 30.1424 24.5233C30.2215 24.3601 30.2626 24.1812 30.2626 23.9999C30.2626 23.8186 30.2215 23.6396 30.1424 23.4765C30.0634 23.3133 29.9483 23.1702 29.806 23.0579L13.944 10.5339Z" fill="white" stroke="white" stroke-width="1.5" stroke-linecap="round" stroke-linejoin="round"/>
</svg>
