<svg width="48" height="48" viewBox="0 0 48 48" fill="none" xmlns="http://www.w3.org/2000/svg">
<path d="M12 14V34" stroke="white" stroke-width="1.5" stroke-linecap="round" stroke-linejoin="round"/>
<path d="M34.056 10.5339C34.2329 10.3941 34.4456 10.307 34.6698 10.2825C34.8939 10.258 35.1204 10.2972 35.3233 10.3955C35.5262 10.4938 35.6973 10.6473 35.817 10.8384C35.9367 11.0295 36.0001 11.2504 36 11.4759V36.5239C35.9997 36.7492 35.936 36.9698 35.8162 37.1606C35.6964 37.3514 35.5252 37.5046 35.3224 37.6027C35.1196 37.7008 34.8932 37.7398 34.6693 37.7152C34.4453 37.6907 34.2328 37.6036 34.056 37.4639L18.194 24.9419C18.0517 24.8295 17.9367 24.6864 17.8576 24.5233C17.7785 24.3601 17.7374 24.1812 17.7374 23.9999C17.7374 23.8186 17.7785 23.6396 17.8576 23.4765C17.9367 23.3133 18.0517 23.1702 18.194 23.0579L34.056 10.5339Z" fill="white" stroke="white" stroke-width="1.5" stroke-linecap="round" stroke-linejoin="round"/>
</svg>
