<svg width="630" height="132" viewBox="0 0 630 132" fill="none" xmlns="http://www.w3.org/2000/svg">
<g clip-path="url(#clip0_5_8)">
<path d="M2.18053 36.109V15.3084C2.18053 12.2152 2.05414 9.61642 1.80134 7.51216C1.54852 5.40791 1.09555 3.23002 0.442459 0.978455H5.90954H11.4082C10.7762 3.18794 10.3338 5.34481 10.081 7.44907C9.82813 9.53228 9.70171 12.152 9.70171 15.3084V36.109C9.70171 39.2233 9.82813 41.8326 10.081 43.9369C10.3338 46.0411 10.7867 48.2085 11.4398 50.439H5.97275H0.474019C1.10606 48.2506 1.54852 46.1042 1.80134 44C2.05414 41.9167 2.18053 39.2865 2.18053 36.109Z" fill="#FF3232"/>
<path d="M87.1462 36.109C87.1462 39.2233 87.2727 41.8326 87.5255 43.9369C87.7783 46.0411 88.2312 48.2085 88.8843 50.439H83.4172H77.9186C78.5506 48.2506 78.993 46.1042 79.2458 44C79.4986 41.8957 79.625 39.2654 79.625 36.109V6.91248L74.5055 0.978455H80.3202H86.1349C86.156 1.63078 86.3562 2.37777 86.7354 3.21947C87.1147 4.04013 87.6097 4.81874 88.2207 5.55523L103.832 24.8091L118.084 6.6915C118.927 5.63938 119.612 4.59777 120.138 3.56668C120.665 2.51456 120.928 1.65183 120.928 0.978455H126.206H131.515C129.998 3.20897 128.934 5.37634 128.323 7.48059C127.733 9.58485 127.438 12.1941 127.438 15.3084V36.109C127.438 39.2233 127.565 41.8326 127.818 43.9369C128.07 46.0411 128.523 48.2085 129.176 50.439H123.709H118.211C118.843 48.2506 119.285 46.1042 119.538 44C119.791 41.8957 119.917 39.2654 119.917 36.109V14.8034L103.548 36.109L87.1462 15.9081V36.109Z" fill="#FF3232"/>
<path d="M198.879 36.1091L215.817 0L232.787 36.1091C234.746 40.2544 236.348 43.3792 237.591 45.4835C238.834 47.5878 240.055 49.2396 241.256 50.439H235.126H228.995C229.248 49.45 229.121 47.9139 228.616 45.8307C228.131 43.7265 227.362 41.4433 226.309 38.9814L224.665 35.1621H206.337L206.115 35.8881C204.851 38.813 203.882 41.6853 203.208 44.505C202.534 47.3247 202.344 49.3027 202.639 50.439H196.445H190.22C191.568 49.0923 192.874 47.3668 194.138 45.2626C195.402 43.1583 196.982 40.1071 198.879 36.1091ZM215.501 13.9197L209.086 28.8493H221.948L215.501 13.9197Z" fill="#FF3232"/>
<path d="M326.064 51.1965C319.07 51.1965 313.244 48.8819 308.588 44.2525C303.953 39.6232 301.636 33.8154 301.636 26.8293C301.636 19.1908 304.196 12.8465 309.315 7.79626C314.435 2.74605 320.85 0.220947 328.561 0.220947C330.92 0.220947 332.953 0.378746 334.66 0.694396C336.387 0.988995 338.536 1.57818 341.106 2.46196V10.637C338.62 8.99568 336.324 7.84889 334.217 7.19658C332.132 6.54425 329.709 6.21807 326.949 6.21807C322.04 6.21807 317.953 8.03824 314.687 11.6786C311.443 15.2979 309.821 19.8537 309.821 25.3458C309.821 31.0273 311.338 35.7618 314.371 39.5495C317.405 43.3161 321.197 45.1994 325.748 45.1994H325.78C329.424 45.1994 332.869 44.6207 336.113 43.4634V40.023C336.113 36.9297 335.987 34.3309 335.734 32.2267C335.481 30.1224 335.028 27.9445 334.375 25.693H339.842H345.341C344.709 27.9024 344.267 30.0593 344.014 32.1636C343.761 34.2468 343.635 36.8666 343.635 40.023V40.9383C343.635 42.5165 343.698 43.8316 343.824 44.8838C343.95 45.9359 344.172 47.0091 344.488 48.1033C339.094 50.1655 332.943 51.1965 326.032 51.1965H326.064Z" fill="#FF3232"/>
<path d="M412.957 36.109V15.3084C412.957 12.2152 412.831 9.61642 412.578 7.51216C412.325 5.40791 411.872 3.23002 411.219 0.978455H416.686H422.185C421.553 3.18794 421.111 5.34481 420.858 7.44907C420.605 9.53228 420.479 12.152 420.479 15.3084V36.109C420.479 39.2233 420.605 41.8326 420.858 43.9369C421.111 46.0411 421.564 48.2085 422.217 50.439H416.75H411.251C411.883 48.2506 412.325 46.1042 412.578 44C412.831 41.9167 412.957 39.2865 412.957 36.109Z" fill="#FF3232"/>
<path d="M498.334 36.109C498.334 39.2233 498.46 41.8326 498.713 43.9369C498.966 46.0411 499.419 48.2085 500.072 50.439H495.047H489.991C490.623 48.2506 491.065 46.1042 491.318 44C491.571 41.8957 491.698 39.2654 491.698 36.109V8.26969C490.581 6.79671 489.622 5.58677 488.822 4.63986C487.073 2.5356 485.925 1.31515 485.377 0.978455H491.255H497.133C498.502 3.46149 499.809 5.64992 501.052 7.54373C502.316 9.43757 503.854 11.5523 505.665 13.8881L524.532 38.3816V15.3084C524.532 12.2152 524.405 9.61642 524.152 7.51216C523.9 5.40791 523.447 3.23002 522.794 0.978455H527.818H532.875C532.243 3.18794 531.8 5.34481 531.547 7.44907C531.294 9.55333 531.168 12.1731 531.168 15.3084V38.571C531.168 40.9909 531.326 43.3476 531.642 45.6413C531.958 47.9349 532.348 49.5342 532.811 50.439H527.787H522.73C522.625 49.7236 522.014 48.461 520.897 46.6513C519.802 44.8206 518.506 42.9479 517.01 41.033L498.334 16.6657V36.109Z" fill="#FF3232"/>
<path d="M599.164 50.439C599.796 48.2506 600.238 46.1042 600.491 44C600.744 41.8957 600.87 39.2654 600.87 36.109V15.3084C600.87 12.2152 600.744 9.61642 600.491 7.51216C600.238 5.40791 599.785 3.23002 599.132 0.978455H608.391H626.467L624.571 5.01864L622.644 9.09035C620.747 8.08032 618.883 7.37539 617.05 6.97558C615.217 6.55474 613.005 6.34433 610.414 6.34433H608.391V22.5366H624.729L622.454 26.5452L620.179 30.5538C618.578 29.5858 616.913 28.902 615.186 28.5022C613.458 28.1023 611.288 27.9024 608.676 27.9024H608.391V45.01C612.857 44.8839 616.534 44.5577 619.42 44.0316C623.254 43.3372 626.657 42.1482 629.627 40.4648L627.573 45.4519L625.488 50.439H608.391H599.164Z" fill="#FF3232"/>
<path d="M1.73812 116.912V96.1119C1.73812 93.0186 1.6117 90.4199 1.35888 88.3157C1.10606 86.2114 0.65309 84.0335 0 81.782H5.49873H8.43765C17.4125 81.782 24.5334 84.0545 29.8004 88.5997C35.0673 93.1239 37.7008 99.2473 37.7008 106.97C37.7008 114.419 35.2464 120.332 30.3376 124.709C25.4499 129.065 18.8241 131.242 10.4601 131.242H5.49873H0.0316073C0.663622 129.054 1.10606 126.908 1.35888 124.803C1.6117 122.699 1.73812 120.069 1.73812 116.912ZM9.2593 125.845C15.4322 125.845 20.3937 124.183 24.1437 120.858C27.8938 117.533 29.7688 113.156 29.7688 107.727C29.7688 101.562 27.9886 96.5959 24.4281 92.8293C20.8677 89.0627 16.159 87.1794 10.3022 87.1794H9.2593V125.845Z" fill="#FF3232"/>
<path d="M96.8837 116.912V96.1119C96.8837 93.0186 96.7573 90.4199 96.5045 88.3157C96.2517 86.2114 95.7987 84.0335 95.1456 81.782H100.644H104.373C110.694 81.782 115.56 83.055 118.973 85.6012C122.386 88.1473 124.093 91.7666 124.093 96.4591C124.093 100.668 122.197 104.056 118.404 106.623C117.204 107.401 115.897 108.096 114.486 108.706L118.057 114.072C119.763 116.576 121.649 119.09 123.714 121.616C125.778 124.12 128.591 127.329 132.151 131.242H123.334C120.785 129.096 117.804 126.013 114.391 121.994C110.999 117.975 108.102 114.135 105.701 110.473L104.405 108.485V116.912C104.405 120.027 104.531 122.636 104.784 124.74C105.037 126.845 105.49 129.012 106.143 131.242H100.676H95.1772C95.8092 129.054 96.2517 126.908 96.5045 124.803C96.7573 122.699 96.8837 120.069 96.8837 116.912ZM104.405 106.654C107.67 106.465 110.325 105.518 112.369 103.814C114.728 101.878 115.908 99.3314 115.908 96.1751C115.908 93.2922 114.791 90.967 112.558 89.1995C110.472 87.5792 107.755 86.6954 104.405 86.5481V106.654Z" fill="#FF3232"/>
<path d="M194.093 116.912L211.032 80.8034L228.002 116.912C229.961 121.058 231.562 124.183 232.805 126.287C234.048 128.391 235.27 130.043 236.471 131.242H230.34H224.21C224.462 130.253 224.336 128.717 223.83 126.634C223.346 124.53 222.577 122.247 221.523 119.785L219.88 115.966H201.551L201.33 116.692C200.066 119.616 199.097 122.489 198.422 125.309C197.748 128.128 197.559 130.106 197.854 131.242H191.66H185.434C186.782 129.896 188.089 128.17 189.353 126.066C190.617 123.962 192.197 120.911 194.093 116.912ZM210.716 94.7231L204.301 109.653H217.162L210.716 94.7231Z" fill="#FF3232"/>
<path d="M313.831 132C306.836 132 301.011 129.685 296.355 125.056C291.72 120.427 289.403 114.619 289.403 107.633C289.403 99.9943 291.962 93.6499 297.082 88.5997C302.201 83.5495 308.616 81.0244 316.327 81.0244C318.687 81.0244 320.72 81.1822 322.426 81.4978C324.154 81.7924 326.303 82.3816 328.873 83.2654V91.4404C326.387 89.7991 324.091 88.6523 321.984 88C319.898 87.3477 317.476 87.0215 314.716 87.0215C309.807 87.0215 305.72 88.8417 302.454 92.482C299.21 96.1014 297.587 100.657 297.587 106.149C297.587 111.831 299.104 116.565 302.138 120.353C305.172 124.12 308.964 126.003 313.515 126.003H313.546C317.191 126.003 320.636 125.424 323.88 124.267V120.826C323.88 117.733 323.754 115.134 323.501 113.03C323.248 110.926 322.795 108.748 322.142 106.496H327.609H333.108C332.476 108.706 332.033 110.863 331.78 112.967C331.528 115.05 331.401 117.67 331.401 120.826V121.742C331.401 123.32 331.464 124.635 331.591 125.687C331.717 126.739 331.938 127.812 332.254 128.907C326.861 130.969 320.709 132 313.799 132H313.831Z" fill="#FF3232"/>
<path d="M414.389 132C407.395 132 401.58 129.549 396.945 124.646C392.31 119.722 389.993 113.546 389.993 106.118C389.993 98.9211 392.457 92.945 397.387 88.1894C402.338 83.4127 408.532 81.0244 415.969 81.0244C422.985 81.0244 428.81 83.4863 433.445 88.4103C438.08 93.3343 440.397 99.5103 440.397 106.938C440.397 114.114 437.922 120.09 432.971 124.867C428.041 129.622 421.847 132 414.389 132ZM415.969 126.003C420.625 126.003 424.491 124.309 427.567 120.921C430.664 117.512 432.212 113.251 432.212 108.138C432.212 102.077 430.516 97.0483 427.125 93.0502C423.754 89.0311 419.509 87.0215 414.389 87.0215C409.754 87.0215 405.888 88.726 402.791 92.1349C399.715 95.5227 398.177 99.7838 398.177 104.918C398.177 110.957 399.863 115.987 403.234 120.006C406.626 124.004 410.871 126.003 415.969 126.003Z" fill="#FF3232"/>
<path d="M509.906 116.912C509.906 120.027 510.032 122.636 510.285 124.74C510.538 126.845 510.991 129.012 511.644 131.242H506.619H501.563C502.195 129.054 502.638 126.908 502.89 124.803C503.143 122.699 503.27 120.069 503.27 116.912V89.0732C502.153 87.6002 501.194 86.3903 500.394 85.4434C498.645 83.3391 497.497 82.1186 496.949 81.782H502.827H508.705C510.074 84.265 511.381 86.4534 512.624 88.3472C513.888 90.2411 515.426 92.3558 517.237 94.6916L536.104 119.185V96.1119C536.104 93.0186 535.977 90.4199 535.724 88.3157C535.472 86.2114 535.019 84.0335 534.366 81.782H539.39H544.447C543.814 83.9914 543.372 86.1483 543.119 88.2525C542.866 90.3568 542.74 92.9766 542.74 96.1119V119.374C542.74 121.794 542.898 124.151 543.214 126.445C543.53 128.738 543.92 130.338 544.383 131.242H539.359H534.302C534.197 130.527 533.586 129.264 532.47 127.455C531.374 125.624 530.078 123.751 528.582 121.836L509.906 97.4692V116.912Z" fill="#FF3232"/>
<path d="M628.167 91.5351C626.692 89.9569 625.218 88.8101 623.743 88.0947C622.268 87.3792 620.646 87.0215 618.876 87.0215C616.812 87.0215 615.095 87.6528 613.725 88.9153C612.377 90.1569 611.703 91.714 611.703 93.5868C611.703 95.186 612.229 96.6379 613.283 97.9426C614.315 99.2262 616.18 100.72 618.876 102.425C622.963 105.034 625.839 107.475 627.504 109.747C629.168 112.02 630 114.671 630 117.702C630 121.805 628.546 125.214 625.639 127.928C622.732 130.643 619.076 132 614.673 132C612.482 132 610.607 131.842 609.048 131.526C607.489 131.211 605.667 130.622 603.581 129.759V120.511C605.098 122.405 606.667 123.793 608.29 124.677C609.912 125.561 611.692 126.003 613.63 126.003C616.074 126.003 618.097 125.308 619.698 123.92C621.32 122.51 622.131 120.753 622.131 118.648C622.131 116.818 621.583 115.197 620.488 113.788C619.413 112.399 617.486 110.821 614.705 109.053C610.702 106.528 607.889 104.182 606.267 102.014C604.645 99.8469 603.834 97.3639 603.834 94.5652C603.834 90.6934 605.309 87.4739 608.258 84.9067C611.229 82.3185 614.947 81.0244 619.413 81.0244C621.204 81.0244 622.795 81.1822 624.185 81.4978C625.597 81.8135 626.924 82.308 628.167 82.9813V91.5351Z" fill="#FF3232"/>
</g>
<defs>
<clipPath id="clip0_5_8">
<rect width="630" height="132" fill="white"/>
</clipPath>
</defs>
</svg>
