<svg width="48" height="48" viewBox="0 0 48 48" fill="none" xmlns="http://www.w3.org/2000/svg">
<path d="M16.944 10.2585C16.7671 10.1187 16.5544 10.0316 16.3303 10.0071C16.1061 9.98262 15.8796 10.0218 15.6767 10.1201C15.4738 10.2184 15.3027 10.3719 15.183 10.563C15.0633 10.7541 14.9999 10.975 15 11.2005V36.2485C15.0003 36.4738 15.064 36.6944 15.1838 36.8852C15.3037 37.076 15.4748 37.2292 15.6776 37.3273C15.8804 37.4254 16.1068 37.4644 16.3307 37.4398C16.5547 37.4153 16.7672 37.3282 16.944 37.1885L32.806 24.6665C32.9483 24.5542 33.0634 24.411 33.1424 24.2479C33.2215 24.0847 33.2626 23.9058 33.2626 23.7245C33.2626 23.5432 33.2215 23.3642 33.1424 23.2011C33.0634 23.0379 32.9483 22.8948 32.806 22.7825L16.944 10.2585Z" fill="white" stroke="white" stroke-width="1.5" stroke-linecap="round" stroke-linejoin="round"/>
</svg>
