<svg width="236" height="49" viewBox="0 0 236 49" fill="none" xmlns="http://www.w3.org/2000/svg">
<g clip-path="url(#clip0_100_2)">
<path d="M0.816859 13.4041V5.68268C0.816859 4.53443 0.769513 3.56974 0.674812 2.78861C0.580104 2.00749 0.410421 1.19903 0.165771 0.36322H2.21376H4.27358C4.03682 1.18341 3.87108 1.98407 3.77638 2.76519C3.68167 3.5385 3.63432 4.51099 3.63432 5.68268V13.4041C3.63432 14.5602 3.68167 15.5288 3.77638 16.3099C3.87108 17.091 4.04076 17.8956 4.28542 18.7236H2.23744H0.177594C0.414357 17.9112 0.580104 17.1144 0.674812 16.3333C0.769513 15.56 0.816859 14.5836 0.816859 13.4041Z" fill="white"/>
<path d="M32.6453 13.4041C32.6453 14.5602 32.6926 15.5288 32.7874 16.3099C32.8821 17.091 33.0517 17.8956 33.2964 18.7236H31.2484H29.1886C29.4253 17.9112 29.591 17.1144 29.6857 16.3333C29.7805 15.5522 29.8278 14.5758 29.8278 13.4041V2.566L27.91 0.36322H30.0882H32.2665C32.2743 0.605373 32.3493 0.882662 32.4914 1.19511C32.6335 1.49975 32.8189 1.78878 33.0478 2.06218L38.8958 9.20946L44.2348 2.48397C44.5504 2.09341 44.807 1.70675 45.0043 1.324C45.2016 0.933443 45.3002 0.613187 45.3002 0.36322H47.2772H49.266C48.6977 1.19121 48.2992 1.99577 48.0703 2.77689C47.8493 3.55802 47.7388 4.52661 47.7388 5.68268V13.4041C47.7388 14.5602 47.7862 15.5288 47.8809 16.3099C47.9756 17.091 48.1453 17.8956 48.3899 18.7236H46.3419H44.2821C44.5189 17.9112 44.6846 17.1144 44.7793 16.3333C44.874 15.5522 44.9214 14.5758 44.9214 13.4041V5.49521L38.7893 13.4041L32.6453 5.9053V13.4041Z" fill="white"/>
<path d="M74.5005 13.4041L80.8457 0L87.2028 13.4041C87.9367 14.9429 88.5365 16.1029 89.0022 16.884C89.4678 17.6652 89.9256 18.2783 90.3754 18.7236H88.0788H85.7822C85.8769 18.3564 85.8296 17.7862 85.6402 17.0129C85.4586 16.2318 85.1706 15.3843 84.776 14.4704L84.1604 13.0526H77.2943L77.2114 13.3221C76.7379 14.4079 76.3748 15.4741 76.1223 16.5208C75.8698 17.5675 75.7987 18.3018 75.9092 18.7236H73.589H71.2568C71.7619 18.2237 72.2512 17.5831 72.7248 16.802C73.1983 16.0209 73.7902 14.8883 74.5005 13.4041ZM80.7273 5.16714L78.3242 10.7092H83.1423L80.7273 5.16714Z" fill="white"/>
<path d="M122.145 19.0048C119.524 19.0048 117.342 18.1456 115.598 16.4271C113.862 14.7086 112.994 12.5527 112.994 9.95935C112.994 7.12387 113.953 4.76877 115.87 2.89406C117.788 1.01936 120.191 0.082016 123.08 0.082016C123.964 0.082016 124.725 0.140593 125.365 0.257766C126.012 0.367125 126.817 0.585837 127.78 0.913906V3.94858C126.848 3.3393 125.988 2.9136 125.199 2.67146C124.418 2.4293 123.51 2.30822 122.476 2.30822C120.637 2.30822 119.106 2.98389 117.883 4.33524C116.668 5.67877 116.06 7.36992 116.06 9.40866C116.06 11.5177 116.628 13.2752 117.765 14.6812C118.901 16.0795 120.322 16.7786 122.026 16.7786H122.038C123.403 16.7786 124.694 16.5638 125.909 16.1341V14.857C125.909 13.7088 125.862 12.7441 125.767 11.9629C125.672 11.1818 125.503 10.3733 125.258 9.53754H127.306H129.366C129.129 10.3577 128.963 11.1584 128.869 11.9395C128.774 12.7128 128.727 13.6853 128.727 14.857V15.1968C128.727 15.7826 128.75 16.2708 128.798 16.6614C128.845 17.052 128.928 17.4503 129.046 17.8565C127.026 18.622 124.721 19.0048 122.133 19.0048H122.145Z" fill="white"/>
<path d="M154.695 13.4041V5.68268C154.695 4.53443 154.648 3.56974 154.553 2.78861C154.458 2.00749 154.289 1.19903 154.044 0.36322H156.092H158.152C157.915 1.18341 157.749 1.98407 157.655 2.76519C157.56 3.5385 157.513 4.51099 157.513 5.68268V13.4041C157.513 14.5602 157.56 15.5288 157.655 16.3099C157.749 17.091 157.919 17.8956 158.164 18.7236H156.116H154.056C154.293 17.9112 154.458 17.1144 154.553 16.3333C154.648 15.56 154.695 14.5836 154.695 13.4041Z" fill="white"/>
<path d="M186.677 13.4041C186.677 14.5602 186.725 15.5288 186.82 16.3099C186.914 17.091 187.084 17.8956 187.329 18.7236H185.446H183.552C183.789 17.9112 183.955 17.1144 184.049 16.3333C184.144 15.5522 184.191 14.5758 184.191 13.4041V3.06982C183.773 2.52303 183.414 2.07388 183.114 1.72238C182.459 0.941252 182.029 0.488207 181.824 0.36322H184.026H186.228C186.741 1.28495 187.23 2.09732 187.696 2.80033C188.169 3.50335 188.745 4.28838 189.424 5.15543L196.491 14.2477V5.68268C196.491 4.53443 196.444 3.56974 196.349 2.78861C196.254 2.00749 196.085 1.19903 195.84 0.36322H197.722H199.616C199.38 1.18341 199.214 1.98407 199.119 2.76519C199.025 3.54632 198.977 4.51881 198.977 5.68268V14.318C198.977 15.2163 199.036 16.0912 199.155 16.9426C199.273 17.794 199.419 18.3877 199.593 18.7236H197.711H195.816C195.777 18.458 195.548 17.9893 195.13 17.3175C194.719 16.638 194.234 15.9428 193.674 15.2319L186.677 6.1865V13.4041Z" fill="white"/>
<path d="M224.449 18.7236C224.685 17.9112 224.851 17.1144 224.946 16.3333C225.041 15.5522 225.088 14.5758 225.088 13.4041V5.68268C225.088 4.53443 225.041 3.56974 224.946 2.78861C224.851 2.00749 224.681 1.19903 224.437 0.36322H227.905H234.677L233.966 1.86299L233.244 3.37446C232.534 2.99952 231.836 2.73784 231.149 2.58942C230.462 2.4332 229.634 2.3551 228.663 2.3551H227.905V8.36585H234.026L233.173 9.8539L232.321 11.3419C231.721 10.9826 231.098 10.7288 230.451 10.5804C229.803 10.4319 228.991 10.3577 228.012 10.3577H227.905V16.7083C229.578 16.6614 230.956 16.5404 232.037 16.3451C233.473 16.0873 234.748 15.6459 235.861 15.021L235.091 16.8723L234.31 18.7236H227.905H224.449Z" fill="white"/>
<path d="M0.651105 43.3993V35.6779C0.651105 34.5296 0.603749 33.565 0.509041 32.7838C0.414333 32.0027 0.24465 31.1942 0 30.3584H2.05984H3.16077C6.52278 30.3584 9.1903 31.2021 11.1633 32.8893C13.1363 34.5687 14.1228 36.8418 14.1228 39.7085C14.1228 42.4737 13.2034 44.6687 11.3646 46.2934C9.53361 47.9103 7.05156 48.7188 3.9184 48.7188H2.05984H0.0118402C0.248595 47.9064 0.414333 47.1097 0.509041 46.3285C0.603749 45.5474 0.651105 44.571 0.651105 43.3993ZM3.46856 46.7152C5.78094 46.7152 7.63953 46.0981 9.04431 44.8639C10.4491 43.6298 11.1515 42.005 11.1515 39.9897C11.1515 37.701 10.4846 35.8576 9.15086 34.4594C7.81709 33.0611 6.05321 32.362 3.85922 32.362H3.46856V46.7152Z" fill="white"/>
<path d="M36.2929 43.3993V35.6779C36.2929 34.5296 36.2456 33.565 36.1509 32.7838C36.0562 32.0027 35.8865 31.1942 35.6418 30.3584H37.7017H39.0986C41.4662 30.3584 43.2892 30.831 44.5677 31.7762C45.8463 32.7213 46.4855 34.0649 46.4855 35.8068C46.4855 37.369 45.7753 38.6267 44.3547 39.5796C43.9048 39.8687 43.4155 40.1264 42.8867 40.3529L44.2245 42.3448C44.8637 43.2744 45.5701 44.2078 46.3435 45.1451C47.1169 46.0747 48.1705 47.2659 49.5042 48.7188H46.2014C45.2465 47.922 44.1298 46.7777 42.8512 45.2858C41.5806 43.7938 40.4955 42.3682 39.5958 41.0091L39.1104 40.2709V43.3993C39.1104 44.5554 39.1577 45.524 39.2525 46.3051C39.3472 47.0862 39.5168 47.8908 39.7615 48.7188H37.7135H35.6537C35.8904 47.9064 36.0562 47.1097 36.1509 46.3285C36.2456 45.5474 36.2929 44.571 36.2929 43.3993ZM39.1104 39.5913C40.3337 39.5211 41.3281 39.1696 42.0936 38.5368C42.9775 37.8182 43.4195 36.873 43.4195 35.7013C43.4195 34.6312 43.0012 33.7681 42.1646 33.1119C41.3833 32.5104 40.3652 32.1824 39.1104 32.1277V39.5913Z" fill="white"/>
<path d="M72.708 43.3993L79.0532 29.9952L85.4102 43.3993C86.1442 44.9381 86.744 46.0981 87.2096 46.8793C87.6752 47.6604 88.133 48.2735 88.5828 48.7188H86.2862H83.9896C84.0844 48.3517 84.037 47.7814 83.8476 47.0081C83.6661 46.227 83.378 45.3795 82.9834 44.4656L82.3678 43.0478H75.5018L75.4188 43.3173C74.9453 44.4031 74.5822 45.4693 74.3297 46.516C74.0771 47.5627 74.0061 48.297 74.1166 48.7188H71.7963H69.4642C69.9693 48.2189 70.4587 47.5784 70.9322 46.7972C71.4057 46.0161 71.9977 44.8835 72.708 43.3993ZM78.9348 35.1624L76.5317 40.7045H81.3498L78.9348 35.1624Z" fill="white"/>
<path d="M117.562 49C114.942 49 112.76 48.1408 111.016 46.4223C109.279 44.7038 108.411 42.5479 108.411 39.9546C108.411 37.1191 109.37 34.764 111.288 32.8893C113.206 31.0146 115.609 30.0772 118.497 30.0772C119.381 30.0772 120.143 30.1358 120.782 30.253C121.429 30.3623 122.234 30.581 123.197 30.9091V33.9438C122.266 33.3345 121.405 32.9088 120.616 32.6666C119.835 32.4245 118.927 32.3034 117.893 32.3034C116.055 32.3034 114.524 32.9791 113.3 34.3304C112.085 35.674 111.477 37.3651 111.477 39.4039C111.477 41.5129 112.045 43.2704 113.182 44.6765C114.318 46.0747 115.739 46.7738 117.444 46.7738H117.455C118.821 46.7738 120.111 46.559 121.326 46.1293V44.8522C121.326 43.704 121.279 42.7393 121.184 41.9581C121.09 41.177 120.92 40.3686 120.675 39.5327H122.723H124.783C124.546 40.3529 124.381 41.1536 124.286 41.9347C124.191 42.708 124.144 43.6805 124.144 44.8522V45.192C124.144 45.7778 124.168 46.2661 124.215 46.6566C124.262 47.0472 124.345 47.4455 124.464 47.8517C122.443 48.6172 120.139 49 117.55 49H117.562Z" fill="white"/>
<path d="M155.231 49C152.611 49 150.433 48.09 148.697 46.27C146.961 44.4421 146.092 42.1495 146.092 39.3922C146.092 36.7207 147.016 34.5023 148.863 32.737C150.717 30.9638 153.037 30.0772 155.823 30.0772C158.451 30.0772 160.634 30.9911 162.37 32.819C164.106 34.6468 164.974 36.9394 164.974 39.6968C164.974 42.3604 164.047 44.5788 162.192 46.352C160.345 48.1173 158.025 49 155.231 49ZM155.823 46.7738C157.567 46.7738 159.016 46.145 160.168 44.8874C161.328 43.6219 161.908 42.0402 161.908 40.142C161.908 37.8924 161.273 36.0255 160.002 34.5414C158.739 33.0494 157.149 32.3034 155.231 32.3034C153.495 32.3034 152.047 32.9361 150.887 34.2016C149.735 35.4592 149.158 37.041 149.158 38.9469C149.158 41.1887 149.79 43.0556 151.053 44.5476C152.323 46.0317 153.913 46.7738 155.823 46.7738Z" fill="white"/>
<path d="M191.012 43.3993C191.012 44.5554 191.06 45.524 191.154 46.3051C191.249 47.0862 191.419 47.8908 191.663 48.7188H189.781H187.887C188.124 47.9064 188.29 47.1097 188.384 46.3285C188.479 45.5474 188.526 44.571 188.526 43.3993V33.065C188.108 32.5183 187.749 32.0691 187.449 31.7176C186.794 30.9365 186.364 30.4834 186.159 30.3584H188.361H190.562C191.075 31.2802 191.565 32.0925 192.03 32.7956C192.504 33.4986 193.08 34.2836 193.759 35.1507L200.826 44.2429V35.6779C200.826 34.5296 200.779 33.565 200.684 32.7838C200.589 32.0027 200.42 31.1942 200.175 30.3584H202.057H203.951C203.715 31.1786 203.549 31.9793 203.454 32.7604C203.359 33.5415 203.312 34.514 203.312 35.6779V44.3132C203.312 45.2115 203.371 46.0864 203.49 46.9378C203.608 47.7893 203.754 48.3829 203.928 48.7188H202.045H200.151C200.112 48.4532 199.883 47.9845 199.465 47.3128C199.054 46.6332 198.569 45.938 198.009 45.2272L191.012 36.1817V43.3993Z" fill="white"/>
<path d="M235.313 33.9789C234.761 33.3931 234.209 32.9674 233.656 32.7018C233.104 32.4362 232.496 32.3034 231.833 32.3034C231.06 32.3034 230.416 32.5378 229.903 33.0064C229.398 33.4673 229.146 34.0453 229.146 34.7405C229.146 35.3342 229.343 35.8732 229.738 36.3575C230.124 36.834 230.823 37.3885 231.833 38.0213C233.364 38.9899 234.441 39.896 235.065 40.7396C235.688 41.5832 236 42.5674 236 43.6922C236 45.2154 235.456 46.4809 234.366 47.4885C233.277 48.4962 231.908 49 230.259 49C229.438 49 228.735 48.9414 228.151 48.8242C227.567 48.707 226.885 48.4883 226.103 48.1681V44.735C226.672 45.4381 227.26 45.9536 227.867 46.2817C228.475 46.6097 229.142 46.7738 229.868 46.7738C230.783 46.7738 231.541 46.516 232.141 46.0005C232.749 45.4771 233.052 44.8249 233.052 44.0437C233.052 43.3642 232.847 42.7627 232.437 42.2393C232.034 41.7238 231.312 41.138 230.27 40.4818C228.771 39.5445 227.717 38.6735 227.11 37.8689C226.502 37.0644 226.198 36.1427 226.198 35.1038C226.198 33.6665 226.751 32.4714 227.855 31.5184C228.968 30.5576 230.361 30.0772 232.034 30.0772C232.705 30.0772 233.301 30.1358 233.822 30.253C234.351 30.3701 234.848 30.5537 235.313 30.8037V33.9789Z" fill="white"/>
</g>
<defs>
<clipPath id="clip0_100_2">
<rect width="236" height="49" fill="white"/>
</clipPath>
</defs>
</svg>
