<svg width="48" height="48" viewBox="0 0 48 48" fill="none" xmlns="http://www.w3.org/2000/svg">
<path d="M16 8C16.4899 8.00006 16.9627 8.17991 17.3287 8.50543C17.6948 8.83095 17.9287 9.2795 17.986 9.766L18 10V38C17.9994 38.5098 17.8042 39.0001 17.4543 39.3707C17.1044 39.7414 16.6261 39.9645 16.1172 39.9943C15.6083 40.0242 15.1072 39.8587 14.7163 39.5315C14.3254 39.2043 14.0742 38.7402 14.014 38.234L14 38V10C14 9.46957 14.2107 8.96086 14.5858 8.58579C14.9609 8.21071 15.4696 8 16 8ZM32 8C32.4899 8.00006 32.9627 8.17991 33.3287 8.50543C33.6948 8.83095 33.9287 9.2795 33.986 9.766L34 10V38C33.9994 38.5098 33.8042 39.0001 33.4543 39.3707C33.1044 39.7414 32.6261 39.9645 32.1172 39.9943C31.6083 40.0242 31.1072 39.8587 30.7163 39.5315C30.3254 39.2043 30.0742 38.7402 30.014 38.234L30 38V10C30 9.46957 30.2107 8.96086 30.5858 8.58579C30.9609 8.21071 31.4696 8 32 8Z" fill="white"/>
</svg>
